# xmcd
#
# Track frame offsets: 
#        150
#        29234
#        35211
#        36798
#        41833
#        46858
#        49195
#        65123
#        70230
#        74640
#        82853
#        90041
#        92129
#        95506
#        110877
#        126150
#        144123
#        146760
#        156953
#        166864
#        167769
#        170255
#        171544
#        181340
#        185930
#        186841
#        194560
#        200713
#        203030
#        217065
#        227439
#        255970
#        263405
#        270330
#
# Disc length: 3888 seconds
#
# Revision: 0
# Processed by: cddbd v1.5.2PL0 Copyright (c) Steve Scherf et al.
# Submitted via: ExactAudioCopy v0.99pb3
#
DISCID=fd0f2e22
DTITLE=Tangerine Dream - Analogue Soundtrack Collection - 1
DYEAR=1900
DGENRE=Soundtrack
TTITLE0=Nightmare City 1
TTITLE1=Nightmare City 2
TTITLE2=Nightmare City 3
TTITLE3=Nightmare City 4
TTITLE4=Nightmare City 5
TTITLE5=Nightmare City 6
TTITLE6=Nightmare City 7
TTITLE7=Nightmare City 8
TTITLE8=Nightmare City 9
TTITLE9=Nightmare City 10
TTITLE10=Nightmare City 11
TTITLE11=Nightmare City 12
TTITLE12=Nightmare City 13
TTITLE13=Nightmare City 14
TTITLE14=Nightmare City 15
TTITLE15=Nightmare City 16
TTITLE16=Nightmare City 17
TTITLE17=Nightmare City 18
TTITLE18=Nightmare City 19
TTITLE19=Nightmare City 20
TTITLE20=Nightmare City 21
TTITLE21=Nightmare City 22
TTITLE22=Nightmare City 23
TTITLE23=Nightmare City 24
TTITLE24=Nightmare City 25
TTITLE25=Nightmare City 26
TTITLE26=Nightmare City 27
TTITLE27=Nightmare City 28
TTITLE28=Nightmare City 29
TTITLE29=Nightmare City 30
TTITLE30=Nightmare City 31
TTITLE31=Nightmare City 32
TTITLE32=Nightmare City 33
TTITLE33=Nightmare City End Titles
EXTD=
EXTT0=
EXTT1=
EXTT2=
EXTT3=
EXTT4=
EXTT5=
EXTT6=
EXTT7=
EXTT8=
EXTT9=
EXTT10=
EXTT11=
EXTT12=
EXTT13=
EXTT14=
EXTT15=
EXTT16=
EXTT17=
EXTT18=
EXTT19=
EXTT20=
EXTT21=
EXTT22=
EXTT23=
EXTT24=
EXTT25=
EXTT26=
EXTT27=
EXTT28=
EXTT29=
EXTT30=
EXTT31=
EXTT32=
EXTT33=
PLAYORDER=
